<?xml version="1.0" encoding="utf-8"?>
<!-- Generator: Adobe Illustrator 16.0.0, SVG Export Plug-In . SVG Version: 6.00 Build 0)  -->
<!DOCTYPE svg PUBLIC "-//W3C//DTD SVG 1.1//EN" "http://www.w3.org/Graphics/SVG/1.1/DTD/svg11.dtd">
<svg version="1.1" id="Layer_1" xmlns:sketch="http://www.bohemiancoding.com/sketch/ns"
	 xmlns="http://www.w3.org/2000/svg" xmlns:xlink="http://www.w3.org/1999/xlink" x="0px" y="0px" width="1517px" height="539px"
	 viewBox="0 0 1517 539" enable-background="new 0 0 1517 539" xml:space="preserve">
<title>GooglePlay</title>
<desc>Created with Sketch.</desc>
<g>
	<path d="M1437,16H80c-33.137,0-60,26.863-60,60v380c0,33.137,26.863,60,60,60h1357c33.137,0,60-26.863,60-60V76
		C1497,42.863,1470.137,16,1437,16z"/>
</g>
<g>
	<g id="PLAY_1_">
		<g>
			<defs>
				<path id="SVGID_1_" d="M337.417,234.314l-56.051-32.363c0,0-102.115-58.962-108.119-62.428
					c-6.002-3.466-11.984-1.366-11.984,5.876c0,12.067,0,125.895,0,125.895s0,123.013,0,128.446c0,5.43,4.275,7.771,9.49,4.762
					c5.213-3.015,110.612-63.868,110.612-63.868l56.049-32.358c0,0,47.558-27.455,53.878-31.104
					c6.323-3.652,5.714-8.658,0.38-11.531C386.34,262.765,337.417,234.314,337.417,234.314z"/>
			</defs>
			<clipPath id="SVGID_2_">
				<use xlink:href="#SVGID_1_"  overflow="visible"/>
			</clipPath>
			
				<linearGradient id="SVGID_3_" gradientUnits="userSpaceOnUse" x1="690.2363" y1="298.4336" x2="690.2363" y2="275.4863" gradientTransform="matrix(12 0 0 -12 -8052.1406 3714.8125)">
				<stop  offset="0" style="stop-color:#257CB0"/>
				<stop  offset="0.2863" style="stop-color:#4A93B5"/>
				<stop  offset="0.767" style="stop-color:#78BCBB"/>
				<stop  offset="1" style="stop-color:#89CFBD"/>
			</linearGradient>
			<polygon clip-path="url(#SVGID_2_)" fill="url(#SVGID_3_)" points="161.267,133.609 161.267,271.294 161.267,408.979 
				300.123,271.297 			"/>
		</g>
		<g>
			<defs>
				<path id="SVGID_4_" d="M337.417,234.314l-56.051-32.363c0,0-102.115-58.962-108.119-62.428
					c-6.002-3.466-11.984-1.366-11.984,5.876c0,12.067,0,125.895,0,125.895s0,123.013,0,128.446c0,5.43,4.275,7.771,9.49,4.762
					c5.213-3.015,110.612-63.868,110.612-63.868l56.049-32.358c0,0,47.558-27.455,53.878-31.104
					c6.323-3.652,5.714-8.658,0.38-11.531C386.34,262.765,337.417,234.314,337.417,234.314z"/>
			</defs>
			<clipPath id="SVGID_5_">
				<use xlink:href="#SVGID_4_"  overflow="visible"/>
			</clipPath>
			
				<linearGradient id="SVGID_6_" gradientUnits="userSpaceOnUse" x1="684.4507" y1="292.7383" x2="699.1299" y2="292.7383" gradientTransform="matrix(12 0 0 -12 -8052.1406 3714.8125)">
				<stop  offset="0" style="stop-color:#52C1AD"/>
				<stop  offset="1" style="stop-color:#DEE89A"/>
			</linearGradient>
			<polygon clip-path="url(#SVGID_5_)" fill="url(#SVGID_6_)" points="337.417,234.314 281.366,201.951 161.267,132.608 
				161.267,133.609 300.123,271.297 			"/>
		</g>
		<g>
			<defs>
				<path id="SVGID_7_" d="M337.417,234.314l-56.051-32.363c0,0-102.115-58.962-108.119-62.428
					c-6.002-3.466-11.984-1.366-11.984,5.876c0,12.067,0,125.895,0,125.895s0,123.013,0,128.446c0,5.43,4.275,7.771,9.49,4.762
					c5.213-3.015,110.612-63.868,110.612-63.868l56.049-32.358c0,0,47.558-27.455,53.878-31.104
					c6.323-3.652,5.714-8.658,0.38-11.531C386.34,262.765,337.417,234.314,337.417,234.314z"/>
			</defs>
			<clipPath id="SVGID_8_">
				<use xlink:href="#SVGID_7_"  overflow="visible"/>
			</clipPath>
			
				<linearGradient id="SVGID_9_" gradientUnits="userSpaceOnUse" x1="691.7905" y1="286.96" x2="691.7905" y2="275.4023" gradientTransform="matrix(12 0 0 -12 -8052.1406 3714.8125)">
				<stop  offset="0" style="stop-color:#EC413D"/>
				<stop  offset="0.1668" style="stop-color:#DA4452"/>
				<stop  offset="0.5748" style="stop-color:#B0487A"/>
				<stop  offset="0.8619" style="stop-color:#954A92"/>
				<stop  offset="1" style="stop-color:#8A4A9D"/>
			</linearGradient>
			<polygon clip-path="url(#SVGID_8_)" fill="url(#SVGID_9_)" points="161.267,408.979 161.267,409.979 281.366,340.634 
				337.415,308.272 300.123,271.297 			"/>
		</g>
		<g>
			<defs>
				<path id="SVGID_10_" d="M337.417,234.314l-56.051-32.363c0,0-102.115-58.962-108.119-62.428
					c-6.002-3.466-11.984-1.366-11.984,5.876c0,12.067,0,125.895,0,125.895s0,123.013,0,128.446c0,5.43,4.275,7.771,9.49,4.762
					c5.213-3.015,110.612-63.868,110.612-63.868l56.049-32.358c0,0,47.558-27.455,53.878-31.104
					c6.323-3.652,5.714-8.658,0.38-11.531C386.34,262.765,337.417,234.314,337.417,234.314z"/>
			</defs>
			<clipPath id="SVGID_11_">
				<use xlink:href="#SVGID_10_"  overflow="visible"/>
			</clipPath>
			
				<linearGradient id="SVGID_12_" gradientUnits="userSpaceOnUse" x1="700.2451" y1="290.041" x2="700.2451" y2="283.8779" gradientTransform="matrix(12 0 0 -12 -8052.1406 3714.8125)">
				<stop  offset="0" style="stop-color:#F58879"/>
				<stop  offset="0.1194" style="stop-color:#F69079"/>
				<stop  offset="0.7128" style="stop-color:#FCB877"/>
				<stop  offset="1" style="stop-color:#FEC874"/>
			</linearGradient>
			<polygon clip-path="url(#SVGID_11_)" fill="url(#SVGID_12_)" points="337.417,234.314 300.123,271.297 337.415,308.272 
				401.473,271.294 			"/>
		</g>
	</g>
	<path fill="#F9F9F9" d="M1121.586,347.185c-5.807,0-11.107-1.072-15.908-3.214c-4.799-2.144-8.832-5.439-12.088-9.887h-0.977
		c0.65,5.209,0.977,10.146,0.977,14.811v36.704h-13.504V256.361h10.986l1.867,12.209h0.65c3.475-4.887,7.52-8.408,12.129-10.579
		s9.902-3.257,15.865-3.257c11.83,0,20.959,4.045,27.385,12.127c6.43,8.083,9.646,19.425,9.646,34.015
		c0,14.649-3.271,26.027-9.803,34.146C1142.277,343.132,1133.201,347.185,1121.586,347.185z M1119.633,266.209
		c-9.115,0-15.707,2.526-19.775,7.569c-4.068,5.046-6.158,13.077-6.268,24.092v3.007c0,12.536,2.088,21.501,6.268,26.902
		c4.18,5.399,10.881,8.092,20.1,8.092c7.709,0,13.746-3.115,18.113-9.354c4.365-6.237,6.549-14.839,6.549-25.803
		c0-11.118-2.184-19.654-6.549-25.594C1133.705,269.177,1127.555,266.209,1119.633,266.209z"/>
	<path fill="#F9F9F9" d="M1189.896,345.555h-13.508V218.924h13.508V345.555z"/>
	<path fill="#F9F9F9" d="M1267.566,345.555l-2.688-12.695h-0.65c-4.449,5.593-8.885,9.379-13.307,11.353
		c-4.42,1.984-9.943,2.973-16.559,2.973c-8.844,0-15.773-2.279-20.795-6.835c-5.021-4.557-7.527-11.037-7.527-19.45
		c0-18.009,14.404-27.451,43.215-28.322l15.141-0.49v-5.531c0-7.001-1.508-12.171-4.521-15.503c-3.006-3.34-7.83-5.008-14.441-5.008
		c-7.438,0-15.85,2.278-25.23,6.834l-4.154-10.334c4.4-2.387,9.211-4.258,14.451-5.614c5.236-1.355,10.482-2.035,15.746-2.035
		c10.633,0,18.514,2.356,23.643,7.077c5.123,4.721,7.688,12.291,7.688,22.709v60.87h-10.01V345.555z M1237.049,336.037
		c8.404,0,15.01-2.307,19.814-6.916c4.797-4.611,7.203-11.069,7.203-19.373v-8.057l-13.518,0.565
		c-10.738,0.387-18.479,2.05-23.232,5.014c-4.744,2.957-7.119,7.555-7.119,13.794c0,4.883,1.475,8.602,4.438,11.146
		C1227.594,334.762,1231.729,336.037,1237.049,336.037z"/>
	<path fill="#F9F9F9" d="M1285.42,256.361h14.48l19.533,50.867c4.285,11.612,6.945,19.993,7.98,25.15h0.65
		c0.707-2.772,2.186-7.502,4.434-14.208c2.252-6.704,9.619-27.301,22.094-61.809h14.492L1330.75,357.93
		c-3.795,10.036-8.232,17.157-13.311,21.369c-5.07,4.202-11.299,6.3-18.67,6.3c-4.125,0-8.195-0.461-12.213-1.381v-10.821
		c2.982,0.648,6.322,0.976,10.012,0.976c9.279,0,15.893-5.208,19.859-15.626l4.961-12.693L1285.42,256.361z"/>
	<path fill="#F9F9F9" d="M871.332,264.651c4.289,3.549,13.242,11.003,13.242,25.19c0,13.798-7.836,20.34-15.672,26.486
		c-2.426,2.423-5.225,5.044-5.225,9.152c0,4.097,2.795,6.337,4.855,8.02l6.719,5.212c8.207,6.906,15.664,13.254,15.664,26.13
		c0,17.537-16.979,35.253-49.062,35.253c-27.057,0-40.109-12.868-40.109-26.682c0-6.714,3.346-16.224,14.365-22.76
		c11.561-7.09,27.242-8.012,35.631-8.587c-2.617-3.354-5.596-6.9-5.596-12.674c0-3.167,0.936-5.034,1.865-7.284
		c-2.061,0.189-4.109,0.375-5.977,0.375c-19.77,0-30.963-14.738-30.963-29.283c0-8.582,3.922-18.102,11.934-24.997
		c10.641-8.768,23.324-10.265,33.408-10.265h38.424l-11.941,6.717h-11.562V264.651z M858.082,347.487
		c-1.492-0.194-2.428-0.194-4.285-0.194c-1.678,0-11.768,0.382-19.592,2.998c-4.105,1.482-16.049,5.959-16.049,19.211
		c0,13.241,12.881,22.77,32.844,22.77c17.898,0,27.424-8.6,27.424-20.155C878.424,362.582,872.266,357.565,858.082,347.487z
		 M863.496,312.035c4.285-4.295,4.652-10.26,4.652-13.621c0-13.43-8.018-34.323-23.498-34.323c-4.855,0-10.074,2.422-13.061,6.157
		c-3.168,3.916-4.109,8.949-4.109,13.806c0,12.498,7.275,33.208,23.328,33.208C855.473,317.262,860.5,315.023,863.496,312.035z"/>
	<path fill="#F9F9F9" d="M753.881,344.502c-29.612,0-45.443-23.099-45.443-43.964c0-24.402,19.927-45.254,48.249-45.254
		c27.366,0,44.505,21.413,44.505,43.955C801.193,321.209,784.25,344.502,753.881,344.502z M777.162,329.416
		c4.475-5.967,5.594-13.413,5.594-20.684c0-16.396-7.822-47.682-30.921-47.682c-6.145,0-12.289,2.424-16.759,6.345
		c-7.267,6.51-8.575,14.71-8.575,22.727c0,18.427,9.127,48.779,31.67,48.779C765.434,338.901,772.887,335.369,777.162,329.416z"/>
	<path fill="#F9F9F9" d="M652.926,344.502c-29.617,0-45.452-23.099-45.452-43.964c0-24.402,19.934-45.254,48.249-45.254
		c27.375,0,44.511,21.413,44.511,43.955C700.235,321.209,683.29,344.502,652.926,344.502z M676.21,329.416
		c4.471-5.967,5.591-13.413,5.591-20.684c0-16.396-7.828-47.682-30.928-47.682c-6.142,0-12.292,2.424-16.758,6.345
		c-7.266,6.51-8.567,14.71-8.567,22.727c0,18.427,9.122,48.779,31.669,48.779C664.481,338.901,671.929,335.369,676.21,329.416z"/>
	<path fill="#F9F9F9" d="M593.247,341.581l-26.783,6.179c-10.866,1.69-20.601,3.176-30.895,3.176
		c-51.692,0-71.347-38.016-71.347-67.791c0-36.325,27.897-70.024,75.656-70.024c10.116,0,19.845,1.495,28.644,3.931
		c14.044,3.933,20.599,8.798,24.721,11.61l-15.548,14.793l-6.552,1.491l4.681-7.493c-6.364-6.173-17.985-17.595-40.074-17.595
		c-29.589,0-51.878,22.481-51.878,55.25c0,35.194,25.473,68.341,66.288,68.341c11.997,0,18.163-2.43,23.784-4.682v-30.143
		l-28.271,1.497l14.976-8.062h39.702l-4.864,4.681c-1.321,1.128-1.503,1.506-1.876,2.991c-0.194,1.688-0.37,7.124-0.37,8.994v22.855
		H593.247z"/>
	<path fill="#F9F9F9" d="M930.52,336.188c-6.184-0.562-7.477-1.681-7.477-8.991v-2.062V221.209c0.037-0.403,0.062-0.817,0.1-1.207
		c0.756-6.551,2.627-7.675,8.439-11.049h-26.789l-14.049,6.743h14.316v0.083l-0.01-0.067v109.424v6.185
		c0,3.739-0.74,4.308-5.051,9.919h33.148l6.93-4.108C936.896,336.743,933.709,336.562,930.52,336.188z"/>
	<path fill="#F9F9F9" d="M1006.721,337.91c-2.039,1.118-4.086,2.426-6.123,3.349c-6.148,2.789-12.469,3.535-18.059,3.535
		c-5.938,0-15.242-0.384-24.736-7.257c-13.193-9.306-18.959-25.3-18.959-39.243c0-28.82,23.432-42.953,42.586-42.953
		c6.697,0,13.586,1.67,19.164,5.211c9.291,6.125,11.709,14.121,13.002,18.402l-43.691,17.672l-14.324,1.115
		c4.643,23.617,20.635,37.37,38.311,37.37c9.48,0,16.365-3.342,22.686-6.498L1006.721,337.91z M989.244,282.484
		c3.527-1.297,5.387-2.417,5.387-5.02c0-7.434-8.365-15.993-18.416-15.993c-7.445,0-21.383,5.769-21.383,25.848
		c0,3.161,0.371,6.508,0.564,9.867L989.244,282.484z"/>
	<path fill="#F9F9F9" d="M1024.67,256.614v12.27h-1.492v-12.27h-4.059v-1.273h9.607v1.273H1024.67z"/>
	<path fill="#F9F9F9" d="M1041.4,268.884V256.5h-0.07l-3.779,12.384h-1.166l-3.811-12.384h-0.049v12.384h-1.354v-13.542h2.32
		l3.447,10.947h0.051l3.396-10.947h2.352v13.542H1041.4z"/>
	<path fill="#F9F9FA" d="M501.415,176.659h-9.306c0-1.281-0.883-4.906-2.647-10.877h-13.436c-1.82,5.874-2.733,9.499-2.733,10.877
		h-8.751c0-0.756,2.263-6.96,6.79-18.61c4.524-11.652,6.788-18.07,6.788-19.25h10.992c0,1.105,2.05,7.429,6.15,18.975
		C499.363,169.317,501.415,175.611,501.415,176.659z M487.981,160.228c-3.316-10.003-4.973-15.411-4.973-16.226h-0.467
		c0,0.755-1.716,6.164-5.146,16.226H487.981z"/>
	<path fill="#F9F9FA" d="M538.912,176.659h-7.182c0-0.796-2.666-4.992-7.997-12.59c-5.58-8.007-8.762-13.481-9.536-16.428h-0.466
		c0.485,4.245,0.729,8.082,0.729,11.515c0,4.788,0.136,10.625,0.406,17.505h-7.154c0.289-6.009,0.437-12.609,0.437-19.8
		c0-7.076-0.147-13.096-0.437-18.058h8.635c0,1.027,2.393,5.129,7.182,12.3c5.098,7.618,8.026,12.784,8.781,15.501h0.436
		c-0.466-4.324-0.697-8.2-0.697-11.632c0-5.251-0.137-10.644-0.407-16.169h7.271c-0.273,4.807-0.405,10.827-0.405,18.058
		C538.504,164.145,538.639,170.744,538.912,176.659z"/>
	<path fill="#F9F9FA" d="M581.056,156.419c0,5.506-1.764,10.314-5.291,14.423c-3.53,4.111-8.473,6.164-14.832,6.164
		c-2.868,0-6.823-0.117-11.864-0.349c0.252-5.855,0.38-12.458,0.38-19.802c0-7.054-0.128-13.074-0.38-18.058h5.09
		c0.834,0,2.074-0.03,3.722-0.087c1.646-0.056,2.723-0.086,3.227-0.086c6.997,0,12.07,1.746,15.224,5.235
		C579.481,147.347,581.056,151.533,581.056,156.419z M573.12,157.669c0-3.722-1.086-6.857-3.257-9.41
		c-2.171-2.546-5.487-3.822-9.945-3.822c-0.833,0-1.977,0.087-3.432,0.263c0.191,3.878,0.289,7.928,0.289,12.153
		c0,4.634,0.098,9.228,0.29,13.784c1.259,0.251,2.521,0.379,3.778,0.379c4.169,0,7.255-1.297,9.261-3.885
		C572.109,164.545,573.12,161.391,573.12,157.669z"/>
	<path fill="#F9F9FA" d="M619.921,176.659h-8.609c-2.249-6.863-3.974-11.099-5.175-12.708c-1.201-1.61-3.141-2.414-5.814-2.414
		c-1.127,0-2.202,0.01-3.228,0.03c0,4.982,0.087,10.012,0.263,15.091h-8.083c0.252-5.855,0.379-12.458,0.379-19.803
		c0-7.053-0.127-13.074-0.379-18.058h5.03c0.582,0,1.797-0.03,3.648-0.086c1.853-0.056,3.562-0.086,5.133-0.086
		c8.897,0,13.348,3.042,13.348,9.13c0,4.826-2.54,8.188-7.617,10.092v0.435c1.956,0.542,3.674,2.071,5.146,4.578
		C615.432,165.371,617.419,169.969,619.921,176.659z M609.017,149.907c0-3.859-2.481-5.789-7.444-5.789
		c-1.821,0-3.433,0.135-4.826,0.407c0.214,3.005,0.319,6.922,0.319,11.748c1.065,0.04,1.968,0.057,2.704,0.057
		C605.934,156.332,609.017,154.191,609.017,149.907z"/>
	<path fill="#F9F9FA" d="M661.602,157.03c0,5.951-1.823,10.885-5.468,14.802c-3.646,3.914-8.154,5.874-13.521,5.874
		c-5.119,0-9.404-1.797-12.854-5.395c-3.451-3.595-5.176-8.167-5.176-13.708c0-5.949,1.822-10.885,5.469-14.801
		c3.643-3.914,8.149-5.874,13.521-5.874c5.12,0,9.401,1.791,12.854,5.378C659.877,146.894,661.602,151.465,661.602,157.03z
		 M653.578,157.872c0-4.05-1.036-7.338-3.11-9.857c-2.076-2.52-4.634-3.779-7.678-3.779c-2.831,0-5.234,1.269-7.21,3.809
		c-1.976,2.539-2.97,5.747-2.97,9.625c0,4.031,1.041,7.312,3.126,9.842c2.085,2.53,4.638,3.795,7.664,3.795
		c2.828,0,5.234-1.274,7.211-3.825C652.587,164.935,653.578,161.729,653.578,157.872z"/>
	<path fill="#F9F9FA" d="M678.044,176.659h-8.229c0.252-6.01,0.38-12.609,0.38-19.803c0-7.076-0.128-13.095-0.38-18.058h8.229
		c-0.252,4.887-0.379,10.905-0.379,18.058C677.665,164.163,677.792,170.766,678.044,176.659z"/>
	<path fill="#F9F9FA" d="M720.19,156.419c0,5.506-1.765,10.314-5.291,14.423c-3.531,4.111-8.474,6.164-14.832,6.164
		c-2.87,0-6.824-0.117-11.865-0.349c0.252-5.855,0.38-12.458,0.38-19.802c0-7.054-0.128-13.074-0.38-18.058h5.089
		c0.834,0,2.074-0.03,3.723-0.087c1.646-0.056,2.723-0.086,3.227-0.086c6.997,0,12.069,1.746,15.224,5.235
		C718.616,147.347,720.19,151.533,720.19,156.419z M712.253,157.669c0-3.722-1.085-6.857-3.255-9.41
		c-2.173-2.546-5.488-3.822-9.945-3.822c-0.834,0-1.977,0.087-3.434,0.263c0.193,3.878,0.29,7.928,0.29,12.153
		c0,4.634,0.098,9.228,0.29,13.784c1.257,0.251,2.52,0.379,3.778,0.379c4.168,0,7.255-1.297,9.261-3.885
		C711.244,164.545,712.253,161.391,712.253,157.669z"/>
	<path fill="#F9F9FA" d="M776.105,176.659h-9.308c0-1.281-0.882-4.906-2.649-10.877h-13.434c-1.822,5.874-2.734,9.499-2.734,10.877
		h-8.749c0-0.756,2.263-6.96,6.788-18.61c4.526-11.652,6.79-18.07,6.79-19.25h10.993c0,1.105,2.051,7.429,6.15,18.975
		C774.051,169.317,776.105,175.611,776.105,176.659z M762.671,160.228c-3.317-10.003-4.976-15.411-4.976-16.226h-0.467
		c0,0.755-1.712,6.164-5.143,16.226H762.671z"/>
	<path fill="#F9F9FA" d="M810.021,148.712c0,4.634-1.721,8.056-5.162,10.265c-3.438,2.21-7.66,3.315-12.662,3.315
		c-0.912,0-1.559-0.018-1.949-0.056c0,3.646,0.107,8.451,0.32,14.423h-8.174c0.254-5.601,0.379-12.204,0.379-19.803
		c0-6.978-0.125-12.998-0.379-18.058h5.061c0.717,0,2.092-0.03,4.129-0.086c2.035-0.056,3.797-0.086,5.291-0.086
		c3.682,0,6.795,0.833,9.334,2.501C808.748,142.794,810.021,145.32,810.021,148.712z M802.523,150.312
		c0-4.146-2.754-6.223-8.26-6.223c-1.379,0-2.832,0.147-4.361,0.437c0.215,3.664,0.32,7.812,0.32,12.446
		c0.484,0.041,1.047,0.057,1.686,0.057C798.984,157.03,802.523,154.791,802.523,150.312z"/>
	<path fill="#F9F9FA" d="M844.898,148.712c0,4.634-1.721,8.056-5.158,10.265c-3.441,2.21-7.664,3.315-12.666,3.315
		c-0.912,0-1.561-0.018-1.949-0.056c0,3.646,0.105,8.451,0.32,14.423h-8.174c0.252-5.601,0.381-12.204,0.381-19.803
		c0-6.978-0.129-12.998-0.381-18.058h5.059c0.719,0,2.094-0.03,4.129-0.086c2.035-0.056,3.797-0.086,5.291-0.086
		c3.684,0,6.797,0.833,9.336,2.501C843.625,142.794,844.898,145.32,844.898,148.712z M837.398,150.312
		c0-4.146-2.754-6.223-8.26-6.223c-1.377,0-2.83,0.147-4.361,0.437c0.215,3.664,0.32,7.812,0.32,12.446
		c0.486,0.041,1.047,0.057,1.686,0.057C833.859,157.03,837.398,154.791,837.398,150.312z"/>
	<path fill="#F9F9FA" d="M901.922,157.03c0,5.951-1.822,10.885-5.469,14.802c-3.646,3.917-8.154,5.874-13.521,5.874
		c-5.119,0-9.404-1.797-12.854-5.395c-3.447-3.595-5.174-8.167-5.174-13.708c0-5.949,1.82-10.885,5.467-14.801
		c3.646-3.917,8.154-5.874,13.521-5.874c5.119,0,9.404,1.791,12.852,5.378C900.193,146.894,901.922,151.465,901.922,157.03z
		 M893.896,157.872c0-4.05-1.039-7.338-3.113-9.857c-2.072-2.52-4.633-3.779-7.676-3.779c-2.83,0-5.234,1.269-7.211,3.809
		c-1.975,2.539-2.967,5.747-2.967,9.625c0,4.031,1.041,7.312,3.127,9.842c2.084,2.53,4.637,3.795,7.66,3.795
		c2.83,0,5.234-1.274,7.211-3.825C892.906,164.935,893.896,161.729,893.896,157.872z"/>
	<path fill="#F9F9FA" d="M941.334,176.659h-7.182c0-0.796-2.664-4.992-7.996-12.59c-5.582-8.007-8.762-13.481-9.537-16.428h-0.465
		c0.484,4.245,0.729,8.082,0.729,11.515c0,4.788,0.135,10.625,0.404,17.505h-7.154c0.291-6.009,0.438-12.609,0.438-19.8
		c0-7.076-0.146-13.096-0.438-18.058h8.637c0,1.027,2.395,5.129,7.18,12.3c5.102,7.618,8.027,12.784,8.781,15.501h0.438
		c-0.467-4.324-0.699-8.2-0.699-11.632c0-5.251-0.135-10.644-0.406-16.169h7.271c-0.273,4.807-0.406,10.827-0.406,18.058
		C940.928,164.145,941.062,170.744,941.334,176.659z"/>
</g>
</svg>
