<?xml version="1.0" encoding="utf-8"?>
<!-- Generator: Adobe Illustrator 16.0.0, SVG Export Plug-In . SVG Version: 6.00 Build 0)  -->
<!DOCTYPE svg PUBLIC "-//W3C//DTD SVG 1.1//EN" "http://www.w3.org/Graphics/SVG/1.1/DTD/svg11.dtd">
<svg version="1.1" id="Layer_1" xmlns:sketch="http://www.bohemiancoding.com/sketch/ns"
	 xmlns="http://www.w3.org/2000/svg" xmlns:xlink="http://www.w3.org/1999/xlink" x="0px" y="0px" width="1517px" height="539px"
	 viewBox="0 0 1517 539" enable-background="new 0 0 1517 539" xml:space="preserve">
<title>GooglePlay</title>
<desc>Created with Sketch.</desc>
<g>
	<path d="M772.325,166.09v-8.079c-12.928,0-19.386,3.129-19.386,10.553c0,5.493,3.34,8.178,7.968,8.178
		C766.832,176.743,772.325,172.226,772.325,166.09z"/>
	<path d="M674.861,294.77c-5.837,0-11.142,1.953-15.88,5.814c-4.749,3.873-7.856,8.944-9.311,15.236
		c-0.732,2.918-1.099,5.305-1.099,7.191v17.777c0,7.723,2.375,14.259,7.125,19.607c4.749,5.326,10.919,8.001,18.51,8.001
		c8.91,0,15.846-3.451,20.807-10.298c4.971-6.869,7.457-15.924,7.457-27.176c0-10.365-2.331-18.91-7.014-25.635
		C690.342,298.287,683.473,294.77,674.861,294.77z"/>
	<path d="M828.398,139.812c-6.691,0-12.817,5.815-12.817,13.894v9.155c0,7.213,5.504,13.139,12.606,13.139
		c8.711,0,13.904-7.102,13.904-18.41C842.081,147.036,836.688,139.812,828.398,139.812z"/>
	<path d="M797.338,294.77c-5.837,0-11.142,1.953-15.902,5.814c-4.738,3.873-7.845,8.944-9.299,15.236
		c-0.721,2.918-1.109,5.305-1.109,7.191v17.777c0,7.723,2.386,14.259,7.113,19.607c4.749,5.315,10.919,8.001,18.531,8.001
		c8.922,0,15.857-3.451,20.807-10.298c4.972-6.869,7.457-15.924,7.457-27.176c0-10.365-2.341-18.91-7.023-25.635
		C812.807,298.287,805.949,294.77,797.338,294.77z"/>
	<path d="M541.432,256.651h-0.443c-1.465,6.281-3.807,15.558-7.014,27.831l-12.273,38.551h39.661l-12.484-38.551
		C547.558,280.532,545.071,271.255,541.432,256.651z"/>
	<path d="M522.601,134.863c-0.644-1.942-1.831-6.458-3.662-13.671h-0.222c-0.755,3.118-1.831,7.646-3.451,13.671l-6.026,18.954
		h19.498L522.601,134.863z"/>
	<path d="M923.854,138.636c-6.68,0-11.939,5.815-12.717,13.782h24.258C935.395,144.34,931.289,138.636,923.854,138.636z"/>
	<path d="M1030.54,157.789c0-10.653-5.382-18.621-13.561-18.621c-8.4,0-13.782,7.856-13.782,18.843
		c0,10.775,5.492,18.631,13.671,18.631S1030.54,168.242,1030.54,157.789z"/>
	<path d="M648.961,166.09v-8.079c-12.928,0-19.387,3.129-19.387,10.553c0,5.493,3.341,8.178,7.968,8.178
		C643.468,176.743,648.961,172.226,648.961,166.09z"/>
	<path d="M1318.582,292.129c-7.745,0-14.037,3.207-18.831,9.643c-3.939,5.115-6.281,11.274-7.002,18.398l49.271,0.022
		c0.166-7.024-1.388-13.062-4.595-18.188C1333.33,295.413,1327.027,292.129,1318.582,292.129z"/>
	<path d="M1129.713,293.238c-9.466,0-16.756,4.217-21.694,12.672c-4.25,7.003-6.348,15.514-6.348,25.568
		c0,9.765,2.098,18.154,6.348,25.123c5.115,8.467,12.251,12.695,21.506,12.695c9.032,0,16.124-4.328,21.262-12.895
		c4.339-7.17,6.524-15.592,6.524-25.368c0-9.755-2.108-18.121-6.336-25.124C1146.015,297.455,1138.901,293.238,1129.713,293.238z"/>
	<path d="M1280.054,138.636c-6.68,0-11.951,5.815-12.717,13.782h24.235C1291.572,144.34,1287.489,138.636,1280.054,138.636z"/>
	<path d="M1437,16H80c-33.137,0-60,26.863-60,60v380c0,33.137,26.863,60,60,60h1357c33.137,0,60-26.863,60-60V76
		C1497,42.863,1470.137,16,1437,16z M1149.398,131.745h7.624v-9.588l11.407-3.451v13.028h12.795v8.733h-12.795v25.412
		c0,6.469,2.253,9.699,6.77,9.699c2.042,0,3.784-0.222,5.171-0.544l0.322,8.833c-2.264,0.866-5.294,1.298-9.033,1.298
		c-9.177,0-14.637-5.06-14.637-18.31v-26.389h-7.624V131.745z M924.687,130.557c13.338,0,21.761,9.91,21.761,24.879
		c0.033,2.042-0.066,3.873-0.399,5.271h-34.911c0.233,9.91,6.78,15.502,16.468,15.502c5.183,0,9.921-0.866,14.115-2.475l1.809,8.079
		c-4.949,2.153-10.764,3.229-17.544,3.229c-16.379,0-26.066-10.342-26.066-26.377C899.918,142.62,909.839,130.557,924.687,130.557z
		 M712.891,107.731h11.629v76.347h-11.629V107.731z M686.413,109.229c3.983,0,7.213,2.907,7.103,6.891
		c0,4.206-3.008,7.002-7.324,7.002c-3.873,0-6.892-3.018-6.892-7.002S682.418,109.229,686.413,109.229z M692.228,131.745v52.333
		h-11.629v-52.333H692.228z M512.036,111.493h14.426l23.492,72.585h-12.396l-6.779-21.317h-23.581l-6.47,21.317h-12.062
		L512.036,111.493z M280.621,125.575c10.109-11.863,27.664-20.951,41.702-21.572c1.842,16.745-4.794,33.246-14.492,45.375
		c-10.121,11.94-26.311,21.073-42.08,19.897C263.687,153.162,271.677,136.028,280.621,125.575z M343.341,254.554
		c0.377,42.868,37.508,57.038,37.951,57.182c-0.222,0.999-5.814,20.475-19.741,40.205c-11.63,17.399-23.814,34.411-43.167,34.699
		c-18.798,0.444-25.124-11.053-46.685-11.053c-21.761,0-28.497,10.765-46.53,11.497c-18.432,0.677-32.514-18.554-44.565-35.799
		c-24.091-35.188-42.845-99.162-17.7-142.695c12.185-21.351,34.4-35.1,58.148-35.466c18.454-0.377,35.577,12.462,46.918,12.462
		c11.119,0,32.292-15.358,54.119-13.061c9.133,0.266,35.122,3.606,51.89,28.053 M579.328,384.61l-13.805-43.378H517.54
		l-13.149,43.378h-24.535l47.55-147.678h29.362l47.762,147.678H579.328z M588.571,184.078h-11.308l-19.176-52.333h12.496
		l8.943,27.676c1.51,4.627,2.797,9.044,3.762,13.239h0.322c0.865-3.762,2.152-8.179,3.762-13.239l8.833-27.676h12.185
		L588.571,184.078z M618.056,169.862c0-12.917,11.197-19.597,30.584-19.597V149.3c0-6.891-3.662-10.342-10.875-10.342
		c-5.172,0-9.699,1.298-13.672,3.884l-2.363-7.646c4.849-3.019,10.875-4.528,17.987-4.528c13.672,0,20.574,7.213,20.574,21.65
		v19.275c0,5.282,0.222,9.377,0.755,12.495l-10.465-0.011l-0.865-6.025h-0.322c-3.551,4.849-8.722,7.213-15.291,7.213
		C624.736,185.265,618.056,178.696,618.056,169.862z M711.814,372.992c-8.812,9.354-19.764,14.025-32.825,14.025
		c-14.104,0-24.247-5.026-30.405-15.113v55.873h-23.659V313.124c0-11.374-0.3-23.038-0.876-35h20.807l1.32,16.89h0.443
		c7.891-12.729,19.864-19.087,35.933-19.087c12.562,0,23.048,4.96,31.438,14.892c8.378,9.955,12.584,23.027,12.584,39.239
		C726.573,348.168,721.657,362.482,711.814,372.992z M741.421,169.862c0-12.917,11.196-19.597,30.583-19.597V149.3
		c0-6.891-3.662-10.342-10.875-10.342c-5.172,0-9.699,1.298-13.672,3.884l-2.374-7.657c4.849-3.018,10.874-4.527,17.987-4.527
		c13.672,0,20.585,7.213,20.585,21.65v19.275c0,5.282,0.222,9.377,0.732,12.495h-10.442l-0.876-6.025h-0.312
		c-3.551,4.849-8.722,7.213-15.291,7.213C748.101,185.265,741.421,178.696,741.421,169.862z M834.291,372.992
		c-8.822,9.354-19.764,14.025-32.836,14.025c-14.094,0-24.236-5.026-30.406-15.113v55.873h-23.658V313.124
		c0-11.374-0.3-23.038-0.877-35h20.807l1.321,16.89h0.443c7.879-12.729,19.853-19.087,35.932-19.087
		c12.551,0,23.049,4.96,31.449,14.892c8.367,9.955,12.584,23.027,12.584,39.239C849.05,348.168,844.134,362.482,834.291,372.992z
		 M830.762,185.265c-7.424,0-12.905-3.129-16.468-9.266h-0.222l-0.666,8.079h-9.898c0.311-4.195,0.422-8.944,0.422-14.104v-62.243
		h11.651v31.67h0.211c3.451-5.814,9.044-8.722,16.689-8.722c12.606,0,21.439,10.775,21.439,26.488
		C853.921,173.414,844.111,185.265,830.762,185.265z M882.751,184.078h-11.618v-76.347h11.618V184.078z M972.857,373.868
		c-9.609,8.611-23.025,12.929-40.226,12.929c-15.891,0-28.63-3.063-38.24-9.2l5.471-19.72c10.376,6.137,21.772,9.211,34.179,9.211
		c8.922,0,15.857-2.02,20.807-6.025c4.972-4.028,7.468-9.389,7.468-16.09c0-6.004-2.063-11.042-6.147-15.137
		c-4.095-4.072-10.863-7.891-20.362-11.375c-25.856-9.643-38.795-23.758-38.795-42.301c0-12.118,4.571-22.039,13.683-29.795
		c9.121-7.746,21.217-11.619,36.265-11.619c13.438,0,24.635,2.342,33.523,7.013l-5.937,19.287
		c-8.367-4.527-17.811-6.792-28.375-6.792c-8.345,0-14.903,2.053-19.575,6.137c-3.939,3.651-5.948,8.101-5.948,13.382
		c0,5.826,2.275,10.665,6.814,14.449c3.928,3.506,11.097,7.312,21.461,11.396c12.717,5.127,22.05,11.097,28.042,17.955
		c6.025,6.857,9.021,15.413,9.021,25.622C985.985,355.758,981.603,365.979,972.857,373.868z M991.334,158.344
		c0-16.157,10.121-27.676,26.078-27.676c15.059,0,25.201,10.875,25.201,26.821c0,16.357-10.453,27.776-26.078,27.776
		C1001.244,185.265,991.334,173.846,991.334,158.344z M1064.407,295.879h-26.077v51.701c0,13.149,4.594,19.708,13.805,19.708
		c4.228,0,7.734-0.355,10.508-1.099l0.655,17.966c-4.661,1.742-10.798,2.618-18.388,2.618c-9.354,0-16.646-2.862-21.928-8.555
		c-5.26-5.704-7.89-15.259-7.89-28.708v-53.676h-15.524V278.08h15.524v-19.498l23.237-7.013v26.511h26.077V295.879z
		 M1071.321,152.951v31.127h-11.607v-37.375c0-4.627-0.134-9.587-0.444-14.97h10.231l0.544,8.079h0.333
		c3.096-5.593,9.466-9.155,16.578-9.155c10.964,0,18.177,8.4,18.177,22.072v31.349h-11.607v-30.05
		c0-9.255-3.562-13.894-10.563-13.894C1076.07,140.134,1071.321,146.06,1071.321,152.951z M1167.809,370.806
		c-9.776,10.808-22.782,16.212-38.994,16.212c-15.647,0-28.087-5.182-37.363-15.547c-9.277-10.363-13.916-23.436-13.916-39.205
		c0-16.501,4.805-30.017,14.349-40.525c9.565-10.509,22.46-15.78,38.673-15.78c15.635,0,28.175,5.204,37.685,15.558
		c9.077,10.065,13.594,23.037,13.594,38.973C1181.835,346.858,1177.163,360.297,1167.809,370.806z M1197.359,107.731H1209v31.438
		h0.223c3.65-5.704,8.943-8.511,15.724-8.511c11.086,0,17.866,8.611,17.866,22.293v31.127h-11.641v-29.829
		c0-9.366-3.562-14.104-10.553-14.104c-6.026,0-11.619,4.095-11.619,12.384v31.548h-11.641V107.731z M1251.312,298.287
		c-8.322,0-14.759,3.118-19.286,9.422c-3.939,5.548-5.903,12.561-5.903,21.028v55.873h-23.659v-72.951
		c0-12.263-0.232-23.459-0.688-33.524h20.606l0.866,20.375h0.654c2.508-7.003,6.437-12.651,11.829-16.868
		c5.282-3.817,10.964-5.715,17.101-5.715c2.187,0,4.161,0.167,5.915,0.433l0.022,22.571
		C1256.429,298.498,1253.921,298.287,1251.312,298.287z M1256.106,158.666c0-16.046,9.91-28.108,24.758-28.108
		c13.35,0,21.761,9.91,21.761,24.879c0.045,2.042-0.066,3.873-0.389,5.271h-34.899c0.222,9.91,6.77,15.502,16.468,15.502
		c5.193,0,9.921-0.866,14.093-2.475l1.82,8.079c-4.938,2.153-10.765,3.229-17.556,3.229
		C1265.794,185.043,1256.106,174.701,1256.106,158.666z M1363.714,337.061h-70.965c0.255,10.52,3.706,18.576,10.286,24.124
		c5.981,4.949,13.728,7.435,23.215,7.435c10.51,0,20.097-1.664,28.719-5.037l3.707,16.423c-10.076,4.384-21.983,6.581-35.699,6.581
		c-16.512,0-29.473-4.861-38.905-14.56c-9.399-9.71-14.127-22.771-14.127-39.105c0-16.046,4.372-29.418,13.161-40.083
		c9.188-11.385,21.605-17.078,37.23-17.078c15.347,0,26.965,5.693,34.844,17.078c6.259,9.022,9.399,20.208,9.399,33.491
		C1364.579,330.568,1364.302,334.141,1363.714,337.061z"/>
</g>
</svg>
